<svg width="31" height="25" viewBox="0 0 31 25" fill="none" xmlns="http://www.w3.org/2000/svg">
<path d="M3.63636 0.727272V24H0.818182V0.727272H3.63636ZM10.8778 24.1818C10.3172 24.1818 9.83617 23.9811 9.43466 23.5795C9.03314 23.178 8.83239 22.697 8.83239 22.1364C8.83239 21.5758 9.03314 21.0947 9.43466 20.6932C9.83617 20.2917 10.3172 20.0909 10.8778 20.0909C11.4384 20.0909 11.9195 20.2917 12.321 20.6932C12.7225 21.0947 12.9233 21.5758 12.9233 22.1364C12.9233 22.5076 12.8286 22.8485 12.6392 23.1591C12.4574 23.4697 12.2112 23.7197 11.9006 23.9091C11.5975 24.0909 11.2566 24.1818 10.8778 24.1818ZM19.6903 24.1818C19.1297 24.1818 18.6487 23.9811 18.2472 23.5795C17.8456 23.178 17.6449 22.697 17.6449 22.1364C17.6449 21.5758 17.8456 21.0947 18.2472 20.6932C18.6487 20.2917 19.1297 20.0909 19.6903 20.0909C20.2509 20.0909 20.732 20.2917 21.1335 20.6932C21.535 21.0947 21.7358 21.5758 21.7358 22.1364C21.7358 22.5076 21.6411 22.8485 21.4517 23.1591C21.2699 23.4697 21.0237 23.7197 20.7131 23.9091C20.41 24.0909 20.0691 24.1818 19.6903 24.1818ZM28.5028 24.1818C27.9422 24.1818 27.4612 23.9811 27.0597 23.5795C26.6581 23.178 26.4574 22.697 26.4574 22.1364C26.4574 21.5758 26.6581 21.0947 27.0597 20.6932C27.4612 20.2917 27.9422 20.0909 28.5028 20.0909C29.0634 20.0909 29.5445 20.2917 29.946 20.6932C30.3475 21.0947 30.5483 21.5758 30.5483 22.1364C30.5483 22.5076 30.4536 22.8485 30.2642 23.1591C30.0824 23.4697 29.8362 23.7197 29.5256 23.9091C29.2225 24.0909 28.8816 24.1818 28.5028 24.1818Z" fill="black"/>
</svg>
